<svg width="517" height="150" viewBox="0 0 517 150" fill="none" xmlns="http://www.w3.org/2000/svg">
<path d="M185.568 102.648C183.705 102.648 182.102 101.989 180.761 100.67C179.42 99.3295 178.75 97.7159 178.75 95.8295C178.75 93.9659 179.42 92.375 180.761 91.0568C182.102 89.7159 183.705 89.0455 185.568 89.0455C187.432 89.0455 189.034 89.7159 190.375 91.0568C191.716 92.375 192.386 93.9659 192.386 95.8295C192.386 97.0795 192.068 98.2273 191.432 99.2727C190.818 100.295 190 101.114 188.977 101.727C187.955 102.341 186.818 102.648 185.568 102.648ZM201.24 102V49.6364H211.092V57.9545H211.638C212.592 55.1364 214.274 52.9205 216.683 51.3068C219.115 49.6705 221.865 48.8523 224.933 48.8523C225.569 48.8523 226.319 48.875 227.183 48.9205C228.069 48.9659 228.763 49.0227 229.263 49.0909V58.8409C228.853 58.7273 228.126 58.6023 227.081 58.4659C226.035 58.3068 224.99 58.2273 223.944 58.2273C221.535 58.2273 219.388 58.7386 217.501 59.7614C215.638 60.7614 214.16 62.1591 213.069 63.9545C211.978 65.7273 211.433 67.75 211.433 70.0227V102H201.24ZM272.522 62.4205L263.284 64.0568C262.897 62.875 262.284 61.75 261.443 60.6818C260.624 59.6136 259.511 58.7386 258.102 58.0568C256.693 57.375 254.931 57.0341 252.818 57.0341C249.931 57.0341 247.522 57.6818 245.59 58.9773C243.659 60.25 242.693 61.8977 242.693 63.9205C242.693 65.6705 243.34 67.0795 244.636 68.1477C245.931 69.2159 248.022 70.0909 250.909 70.7727L259.227 72.6818C264.045 73.7955 267.636 75.5114 269.999 77.8295C272.363 80.1477 273.545 83.1591 273.545 86.8636C273.545 90 272.636 92.7955 270.818 95.25C269.022 97.6818 266.511 99.5909 263.284 100.977C260.079 102.364 256.363 103.057 252.136 103.057C246.272 103.057 241.488 101.807 237.784 99.3068C234.079 96.7841 231.806 93.2045 230.965 88.5682L240.818 87.0682C241.431 89.6364 242.693 91.5795 244.602 92.8977C246.511 94.1932 248.999 94.8409 252.068 94.8409C255.409 94.8409 258.079 94.1477 260.079 92.7614C262.079 91.3523 263.079 89.6364 263.079 87.6136C263.079 85.9773 262.465 84.6023 261.238 83.4886C260.034 82.375 258.181 81.5341 255.681 80.9659L246.818 79.0227C241.931 77.9091 238.318 76.1364 235.977 73.7045C233.659 71.2727 232.499 68.1932 232.499 64.4659C232.499 61.375 233.363 58.6705 235.09 56.3523C236.818 54.0341 239.204 52.2273 242.249 50.9318C245.295 49.6136 248.784 48.9545 252.715 48.9545C258.374 48.9545 262.829 50.1818 266.079 52.6364C269.329 55.0682 271.477 58.3295 272.522 62.4205ZM315.305 121.636V93.8523H314.691C314.077 94.9659 313.191 96.2386 312.032 97.6705C310.895 99.1023 309.327 100.352 307.327 101.42C305.327 102.489 302.736 103.023 299.555 103.023C295.327 103.023 291.555 101.943 288.236 99.7841C284.941 97.6023 282.35 94.5 280.464 90.4773C278.6 86.4318 277.668 81.5795 277.668 75.9205C277.668 70.2614 278.611 65.4205 280.498 61.3977C282.407 57.375 285.02 54.2955 288.339 52.1591C291.657 50.0227 295.418 48.9545 299.623 48.9545C302.873 48.9545 305.486 49.5 307.464 50.5909C309.464 51.6591 311.009 52.9091 312.1 54.3409C313.214 55.7727 314.077 57.0341 314.691 58.125H315.543V49.6364H325.498V121.636H315.305ZM301.805 94.3295C304.736 94.3295 307.214 93.5568 309.236 92.0114C311.282 90.4432 312.827 88.2727 313.873 85.5C314.941 82.7273 315.475 79.5 315.475 75.8182C315.475 72.1818 314.952 69 313.907 66.2727C312.861 63.5455 311.327 61.4205 309.305 59.8977C307.282 58.375 304.782 57.6136 301.805 57.6136C298.736 57.6136 296.18 58.4091 294.134 60C292.089 61.5909 290.543 63.7614 289.498 66.5114C288.475 69.2614 287.964 72.3636 287.964 75.8182C287.964 79.3182 288.486 82.4659 289.532 85.2614C290.577 88.0568 292.123 90.2727 294.168 91.9091C296.236 93.5227 298.782 94.3295 301.805 94.3295ZM367.573 80.2841V49.6364H377.8V102H367.777V92.9318H367.232C366.027 95.7273 364.095 98.0568 361.436 99.9205C358.8 101.761 355.516 102.682 351.584 102.682C348.22 102.682 345.243 101.943 342.652 100.466C340.084 98.9659 338.061 96.75 336.584 93.8182C335.13 90.8864 334.402 87.2614 334.402 82.9432V49.6364H344.595V81.7159C344.595 85.2841 345.584 88.125 347.561 90.2386C349.539 92.3523 352.107 93.4091 355.266 93.4091C357.175 93.4091 359.073 92.9318 360.959 91.9773C362.868 91.0227 364.448 89.5795 365.698 87.6477C366.97 85.7159 367.595 83.2614 367.573 80.2841ZM401.935 103.159C398.616 103.159 395.616 102.545 392.935 101.318C390.253 100.068 388.128 98.2614 386.56 95.8977C385.014 93.5341 384.241 90.6364 384.241 87.2045C384.241 84.25 384.81 81.8182 385.946 79.9091C387.082 78 388.616 76.4886 390.548 75.375C392.48 74.2614 394.639 73.4205 397.026 72.8523C399.412 72.2841 401.844 71.8523 404.321 71.5568C407.457 71.1932 410.003 70.8977 411.957 70.6705C413.912 70.4205 415.332 70.0227 416.219 69.4773C417.105 68.9318 417.548 68.0455 417.548 66.8182V66.5795C417.548 63.6023 416.707 61.2955 415.026 59.6591C413.366 58.0227 410.889 57.2045 407.594 57.2045C404.162 57.2045 401.457 57.9659 399.48 59.4886C397.526 60.9886 396.173 62.6591 395.423 64.5L385.844 62.3182C386.98 59.1364 388.639 56.5682 390.821 54.6136C393.026 52.6364 395.56 51.2045 398.423 50.3182C401.287 49.4091 404.298 48.9545 407.457 48.9545C409.548 48.9545 411.764 49.2045 414.105 49.7045C416.469 50.1818 418.673 51.0682 420.719 52.3636C422.787 53.6591 424.48 55.5114 425.798 57.9205C427.116 60.3068 427.776 63.4091 427.776 67.2273V102H417.821V94.8409H417.412C416.753 96.1591 415.764 97.4545 414.446 98.7273C413.128 100 411.435 101.057 409.366 101.898C407.298 102.739 404.821 103.159 401.935 103.159ZM404.151 94.9773C406.969 94.9773 409.378 94.4205 411.378 93.3068C413.401 92.1932 414.935 90.7386 415.98 88.9432C417.048 87.125 417.582 85.1818 417.582 83.1136V76.3636C417.219 76.7273 416.514 77.0682 415.469 77.3864C414.446 77.6818 413.276 77.9432 411.957 78.1705C410.639 78.375 409.355 78.5682 408.105 78.75C406.855 78.9091 405.81 79.0455 404.969 79.1591C402.991 79.4091 401.185 79.8295 399.548 80.4205C397.935 81.0114 396.639 81.8636 395.662 82.9773C394.707 84.0682 394.23 85.5227 394.23 87.3409C394.23 89.8636 395.162 91.7727 397.026 93.0682C398.889 94.3409 401.264 94.9773 404.151 94.9773ZM436.552 102V49.6364H446.405V57.9545H446.95C447.905 55.1364 449.586 52.9205 451.995 51.3068C454.427 49.6705 457.177 48.8523 460.245 48.8523C460.882 48.8523 461.632 48.875 462.495 48.9205C463.382 48.9659 464.075 49.0227 464.575 49.0909V58.8409C464.166 58.7273 463.439 58.6023 462.393 58.4659C461.348 58.3068 460.302 58.2273 459.257 58.2273C456.848 58.2273 454.7 58.7386 452.814 59.7614C450.95 60.7614 449.473 62.1591 448.382 63.9545C447.291 65.7273 446.745 67.75 446.745 70.0227V102H436.552ZM489.289 103.057C484.13 103.057 479.687 101.955 475.96 99.75C472.255 97.5227 469.391 94.3977 467.369 90.375C465.369 86.3295 464.369 81.5909 464.369 76.1591C464.369 70.7955 465.369 66.0682 467.369 61.9773C469.391 57.8864 472.21 54.6932 475.823 52.3977C479.46 50.1023 483.71 48.9545 488.573 48.9545C491.528 48.9545 494.391 49.4432 497.164 50.4205C499.937 51.3977 502.426 52.9318 504.63 55.0227C506.835 57.1136 508.573 59.8295 509.846 63.1705C511.119 66.4886 511.755 70.5227 511.755 75.2727V78.8864H470.13V71.25H501.766C501.766 68.5682 501.221 66.1932 500.13 64.125C499.039 62.0341 497.505 60.3864 495.528 59.1818C493.573 57.9773 491.278 57.375 488.641 57.375C485.778 57.375 483.278 58.0795 481.141 59.4886C479.028 60.875 477.391 62.6932 476.232 64.9432C475.096 67.1705 474.528 69.5909 474.528 72.2045V78.1705C474.528 81.6705 475.141 84.6477 476.369 87.1023C477.619 89.5568 479.357 91.4318 481.585 92.7273C483.812 94 486.414 94.6364 489.391 94.6364C491.323 94.6364 493.085 94.3636 494.676 93.8182C496.266 93.25 497.641 92.4091 498.801 91.2955C499.96 90.1818 500.846 88.8068 501.46 87.1705L511.107 88.9091C510.335 91.75 508.948 94.2386 506.948 96.375C504.971 98.4886 502.482 100.136 499.482 101.318C496.505 102.477 493.107 103.057 489.289 103.057Z" fill="black"/>
<circle cx="14.4737" cy="75.0001" r="14.4737" fill="#F54B5D"/>
<circle cx="75" cy="135.526" r="14.4737" fill="#F54B5D"/>
<circle cx="17.1053" cy="43.421" r="11.8421" fill="#C42138"/>
<circle cx="48.6842" cy="75.0001" r="11.8421" fill="#C42138"/>
<circle cx="75" cy="101.316" r="11.8421" fill="#C42138"/>
<circle cx="75" cy="48.6841" r="11.8421" fill="#C42138"/>
<circle cx="43.421" cy="130.263" r="11.8421" fill="#C42138"/>
<circle cx="106.579" cy="130.263" r="11.8421" fill="#C42138"/>
<circle cx="75" cy="14.4737" r="14.4737" fill="#F54B5D"/>
<circle cx="43.421" cy="19.7369" r="11.8421" fill="#C42138"/>
<circle cx="106.579" cy="19.7369" r="11.8421" fill="#C42138"/>
<circle cx="101.316" cy="75.0001" r="11.8421" fill="#C42138"/>
<circle cx="17.1053" cy="106.579" r="11.8421" fill="#C42138"/>
<circle cx="17.1053" cy="19.7369" r="6.57895" fill="#F54B5D"/>
<circle cx="75" cy="75.0001" r="6.57895" fill="#F54B5D"/>
<path d="M23.6842 130.263C23.6842 133.897 20.7387 136.842 17.1053 136.842C13.4718 136.842 10.5263 133.897 10.5263 130.263C10.5263 126.63 13.4718 123.684 17.1053 123.684C20.7387 123.684 23.6842 126.63 23.6842 130.263Z" fill="#F54B5D"/>
<circle cx="135.526" cy="75.0001" r="14.4737" fill="#F54B5D"/>
<circle cx="132.895" cy="43.421" r="11.8421" fill="#C42138"/>
<circle cx="132.895" cy="106.579" r="11.8421" fill="#C42138"/>
<circle cx="132.895" cy="19.7369" r="6.57895" fill="#F54B5D"/>
<path d="M139.474 130.263C139.474 133.897 136.528 136.842 132.895 136.842C129.261 136.842 126.316 133.897 126.316 130.263C126.316 126.63 129.261 123.684 132.895 123.684C136.528 123.684 139.474 126.63 139.474 130.263Z" fill="#F54B5D"/>
<path d="M110.526 103.947C110.526 107.581 107.581 110.526 103.947 110.526C100.314 110.526 97.3684 107.581 97.3684 103.947C97.3684 100.314 100.314 97.3684 103.947 97.3684C107.581 97.3684 110.526 100.314 110.526 103.947Z" fill="#F54B5D"/>
<path d="M52.6316 103.947C52.6316 107.581 49.6861 110.526 46.0526 110.526C42.4192 110.526 39.4737 107.581 39.4737 103.947C39.4737 100.314 42.4192 97.3684 46.0526 97.3684C49.6861 97.3684 52.6316 100.314 52.6316 103.947Z" fill="#F54B5D"/>
<path d="M52.6316 46.421C52.6316 50.0544 49.6861 52.9999 46.0526 52.9999C42.4192 52.9999 39.4737 50.0544 39.4737 46.421C39.4737 42.7875 42.4192 39.842 46.0526 39.842C49.6861 39.842 52.6316 42.7875 52.6316 46.421Z" fill="#F54B5D"/>
<path d="M110.526 46.421C110.526 50.0544 107.581 52.9999 103.947 52.9999C100.314 52.9999 97.3684 50.0544 97.3684 46.421C97.3684 42.7875 100.314 39.842 103.947 39.842C107.581 39.842 110.526 42.7875 110.526 46.421Z" fill="#F54B5D"/>
</svg>
