<svg width="150" height="150" viewBox="0 0 150 150" fill="none" xmlns="http://www.w3.org/2000/svg">
<circle cx="14.4737" cy="75.0001" r="14.4737" fill="#F54B5D"/>
<circle cx="75" cy="135.526" r="14.4737" fill="#F54B5D"/>
<circle cx="17.1053" cy="43.421" r="11.8421" fill="#C42138"/>
<circle cx="48.6842" cy="75.0001" r="11.8421" fill="#C42138"/>
<circle cx="75" cy="101.316" r="11.8421" fill="#C42138"/>
<circle cx="75" cy="48.6841" r="11.8421" fill="#C42138"/>
<circle cx="43.421" cy="130.263" r="11.8421" fill="#C42138"/>
<circle cx="106.579" cy="130.263" r="11.8421" fill="#C42138"/>
<circle cx="75" cy="14.4737" r="14.4737" fill="#F54B5D"/>
<circle cx="43.421" cy="19.7369" r="11.8421" fill="#C42138"/>
<circle cx="106.579" cy="19.7369" r="11.8421" fill="#C42138"/>
<circle cx="101.316" cy="75.0001" r="11.8421" fill="#C42138"/>
<circle cx="17.1053" cy="106.579" r="11.8421" fill="#C42138"/>
<circle cx="17.1053" cy="19.7369" r="6.57895" fill="#F54B5D"/>
<circle cx="75" cy="75.0001" r="6.57895" fill="#F54B5D"/>
<path d="M23.6842 130.263C23.6842 133.897 20.7387 136.842 17.1053 136.842C13.4718 136.842 10.5263 133.897 10.5263 130.263C10.5263 126.63 13.4718 123.684 17.1053 123.684C20.7387 123.684 23.6842 126.63 23.6842 130.263Z" fill="#F54B5D"/>
<circle cx="135.526" cy="75.0001" r="14.4737" fill="#F54B5D"/>
<circle cx="132.895" cy="43.421" r="11.8421" fill="#C42138"/>
<circle cx="132.895" cy="106.579" r="11.8421" fill="#C42138"/>
<circle cx="132.895" cy="19.7369" r="6.57895" fill="#F54B5D"/>
<path d="M139.474 130.263C139.474 133.897 136.528 136.842 132.895 136.842C129.261 136.842 126.316 133.897 126.316 130.263C126.316 126.63 129.261 123.684 132.895 123.684C136.528 123.684 139.474 126.63 139.474 130.263Z" fill="#F54B5D"/>
<path d="M110.526 103.947C110.526 107.581 107.581 110.526 103.947 110.526C100.314 110.526 97.3684 107.581 97.3684 103.947C97.3684 100.314 100.314 97.3684 103.947 97.3684C107.581 97.3684 110.526 100.314 110.526 103.947Z" fill="#F54B5D"/>
<path d="M52.6316 103.947C52.6316 107.581 49.6861 110.526 46.0526 110.526C42.4192 110.526 39.4737 107.581 39.4737 103.947C39.4737 100.314 42.4192 97.3684 46.0526 97.3684C49.6861 97.3684 52.6316 100.314 52.6316 103.947Z" fill="#F54B5D"/>
<path d="M52.6316 46.421C52.6316 50.0544 49.6861 52.9999 46.0526 52.9999C42.4192 52.9999 39.4737 50.0544 39.4737 46.421C39.4737 42.7875 42.4192 39.842 46.0526 39.842C49.6861 39.842 52.6316 42.7875 52.6316 46.421Z" fill="#F54B5D"/>
<path d="M110.526 46.421C110.526 50.0544 107.581 52.9999 103.947 52.9999C100.314 52.9999 97.3684 50.0544 97.3684 46.421C97.3684 42.7875 100.314 39.842 103.947 39.842C107.581 39.842 110.526 42.7875 110.526 46.421Z" fill="#F54B5D"/>
</svg>
